<svg width="105.000000" height="42.000000" viewBox="0 0 105 42" fill="none" xmlns="http://www.w3.org/2000/svg" xmlns:xlink="http://www.w3.org/1999/xlink">
	<desc>
			Created with Pixso.
	</desc>
	<defs>
		<linearGradient id="paint_linear_2_94_0" x1="-2.867914" y1="23.499977" x2="103.713142" y2="12.000015" gradientUnits="userSpaceOnUse">
			<stop stop-color="#2D9CDB"/>
			<stop offset="1.000000" stop-color="#255F80"/>
		</linearGradient>
	</defs>
	<path id="Vector" d="M0.63 23.85C2.32 21 2.91 19.24 4.08 22.77C4.56 24.21 4.7 26.73 5.28 27.74C6.84 30.44 6.86 35.53 8.39 30.89C9.54 27.43 11.18 32.01 12.92 31.34C15.68 30.28 16.53 32.86 18.31 35.77C19.36 37.49 21.31 41.12 22.63 40.99C24.35 40.82 24.88 34.5 26.75 33.58C27.79 33.06 28.6 35.01 29.53 34.12C30.09 33.58 30.12 31.6 30.63 31.34C31.46 30.93 31.02 32.71 31.47 32.71C32.69 32.71 32.59 31.4 33.5 33.37C34.36 35.21 35.64 34.16 36.43 32.79C37.7 30.6 39.59 29.92 40.98 27.95C42.21 26.21 44.88 23.48 46.44 22.94C47.88 22.44 48.6 25.26 49.63 25.26C50.49 25.26 52.72 23.13 53.25 21.98C54.07 20.2 55.27 23.36 56.05 23.06C57.28 22.59 58.51 18.49 59.38 16.97C60.22 15.52 62.09 10.51 63.38 10.51C63.77 10.51 66.37 12.81 66.71 13.25C67.91 14.75 69.59 17.31 70.93 18.46C73.26 20.47 75.61 13.79 77.57 12.75C78.85 12.07 78.22 17.01 79.99 15.48C80.69 14.88 81.06 13.72 81.9 13.45C83.08 13.08 83.27 15.94 84.11 16.35C85.99 17.28 88.26 13.07 89.52 11.13C90.29 9.95 93.52 5.18 94.65 7.03C95.65 8.67 96.77 11.18 97.89 8.19C99.11 4.91 101.83 1.61 103.71 0" stroke="url(#paint_linear_2_94_0)" stroke-opacity="1.000000" stroke-width="1.500000" stroke-linejoin="round" stroke-linecap="round"/>
</svg>
