<svg width="104.000000" height="42.000000" viewBox="0 0 104 42" fill="none" xmlns="http://www.w3.org/2000/svg" xmlns:xlink="http://www.w3.org/1999/xlink">
	<desc>
			Created with Pixso.
	</desc>
	<defs>
		<linearGradient id="paint_linear_2_120_0" x1="-3.348871" y1="23.499977" x2="103.232185" y2="12.000015" gradientUnits="userSpaceOnUse">
			<stop stop-color="#2D9CDB"/>
			<stop offset="1.000000" stop-color="#255F80"/>
		</linearGradient>
	</defs>
	<path id="Vector" d="M0.15 23.85C1.83 21 2.43 19.24 3.6 22.77C4.08 24.21 4.21 26.73 4.8 27.74C6.36 30.44 6.38 35.53 7.91 30.89C9.06 27.43 10.7 32.01 12.44 31.34C15.2 30.28 16.05 32.86 17.83 35.77C18.88 37.49 20.83 41.12 22.14 40.99C23.87 40.82 24.4 34.5 26.27 33.58C27.31 33.06 28.12 35.01 29.05 34.12C29.6 33.58 29.63 31.6 30.15 31.34C30.98 30.93 30.54 32.71 30.99 32.71C32.21 32.71 32.11 31.4 33.02 33.37C33.87 35.21 35.16 34.16 35.95 32.79C37.22 30.6 39.11 29.92 40.5 27.95C41.73 26.21 44.4 23.48 45.96 22.94C47.39 22.44 48.11 25.26 49.15 25.26C50 25.26 52.24 23.13 52.77 21.98C53.59 20.2 54.79 23.36 55.57 23.06C56.8 22.59 58.02 18.49 58.9 16.97C59.74 15.52 61.61 10.51 62.9 10.51C63.29 10.51 65.89 12.81 66.23 13.25C67.43 14.75 69.11 17.31 70.45 18.46C72.78 20.47 75.13 13.79 77.09 12.75C78.37 12.07 77.74 17.01 79.51 15.48C80.21 14.88 80.58 13.72 81.42 13.45C82.6 13.08 82.79 15.94 83.63 16.35C85.51 17.28 87.78 13.07 89.04 11.13C89.81 9.95 93.03 5.18 94.17 7.03C95.17 8.67 96.29 11.18 97.4 8.19C98.63 4.91 101.35 1.61 103.23 0" stroke="url(#paint_linear_2_120_0)" stroke-opacity="1.000000" stroke-width="1.500000" stroke-linejoin="round" stroke-linecap="round"/>
</svg>
