<svg width="104.000000" height="42.000000" viewBox="0 0 104 42" fill="none" xmlns="http://www.w3.org/2000/svg" xmlns:xlink="http://www.w3.org/1999/xlink">
	<desc>
			Created with Pixso.
	</desc>
	<defs>
		<linearGradient id="paint_linear_2_101_0" x1="-3.628901" y1="23.499977" x2="102.952156" y2="12.000015" gradientUnits="userSpaceOnUse">
			<stop stop-color="#2D9CDB"/>
			<stop offset="1.000000" stop-color="#255F80"/>
		</linearGradient>
	</defs>
	<path id="Vector" d="M-0.13 23.85C1.55 21 2.15 19.24 3.32 22.77C3.8 24.21 3.93 26.73 4.52 27.74C6.08 30.44 6.1 35.53 7.63 30.89C8.78 27.43 10.42 32.01 12.16 31.34C14.92 30.28 15.77 32.86 17.55 35.77C18.6 37.49 20.55 41.12 21.86 40.99C23.59 40.82 24.12 34.5 25.99 33.58C27.03 33.06 27.84 35.01 28.77 34.12C29.32 33.58 29.35 31.6 29.87 31.34C30.7 30.93 30.26 32.71 30.71 32.71C31.93 32.71 31.83 31.4 32.74 33.37C33.59 35.21 34.88 34.16 35.67 32.79C36.94 30.6 38.83 29.92 40.22 27.95C41.45 26.21 44.12 23.48 45.68 22.94C47.11 22.44 47.83 25.26 48.87 25.26C49.72 25.26 51.96 23.13 52.49 21.98C53.31 20.2 54.51 23.36 55.29 23.06C56.52 22.59 57.74 18.49 58.62 16.97C59.46 15.52 61.33 10.51 62.62 10.51C63.01 10.51 65.61 12.81 65.95 13.25C67.15 14.75 68.83 17.31 70.17 18.46C72.5 20.47 74.85 13.79 76.81 12.75C78.09 12.07 77.46 17.01 79.23 15.48C79.93 14.88 80.3 13.72 81.14 13.45C82.32 13.08 82.51 15.94 83.35 16.35C85.23 17.28 87.5 13.07 88.76 11.13C89.53 9.95 92.75 5.18 93.89 7.03C94.89 8.67 96.01 11.18 97.12 8.19C98.35 4.91 101.07 1.61 102.95 0" stroke="url(#paint_linear_2_101_0)" stroke-opacity="1.000000" stroke-width="1.500000" stroke-linejoin="round" stroke-linecap="round"/>
</svg>
