<svg width="21.000000" height="21.000000" viewBox="0 0 21 21" fill="none" xmlns="http://www.w3.org/2000/svg" xmlns:xlink="http://www.w3.org/1999/xlink">
	<desc>
			Created with Pixso.
	</desc>
	<defs/>
	<path id="Vector" d="M17.48 3.06C15.54 1.13 12.95 0 10.04 0C7.13 0 4.55 1.21 2.61 3.06C0.67 5 -0.47 7.59 -0.47 10.5C-0.47 13.4 0.75 15.99 2.61 17.93C4.55 19.86 7.13 21 10.04 21C12.95 21 15.54 19.78 17.48 17.93C19.42 15.99 20.55 13.4 20.55 10.5C20.55 7.59 19.34 5 17.48 3.06ZM15.21 15.66C13.84 17.04 11.98 17.76 10.04 17.76C8.1 17.76 6.24 17.04 4.87 15.66C3.49 14.29 2.77 12.43 2.77 10.5C2.77 8.56 3.49 6.7 4.87 5.33C6.24 3.95 8.1 3.23 10.04 3.23C11.98 3.23 13.84 3.95 15.21 5.33C16.59 6.7 17.32 8.56 17.32 10.5C17.32 12.43 16.59 14.29 15.21 15.66Z" fill="#24528F" fill-opacity="1.000000" fill-rule="nonzero"/>
	<path id="Vector" d="M10.85 4.84L9.23 4.84C8.75 4.84 8.42 5.16 8.42 5.65L8.42 7.26C8.42 7.75 8.75 8.07 9.23 8.07L10.85 8.07C11.33 8.07 11.66 7.75 11.66 7.26L11.66 5.65C11.66 5.16 11.33 4.84 10.85 4.84Z" fill="#24528F" fill-opacity="1.000000" fill-rule="nonzero"/>
	<path id="Vector" d="M10.85 9.69L9.23 9.69C8.75 9.69 8.42 10.01 8.42 10.5L8.42 15.34C8.42 15.83 8.75 16.15 9.23 16.15L10.85 16.15C11.33 16.15 11.66 15.83 11.66 15.34L11.66 10.5C11.66 10.01 11.33 9.69 10.85 9.69Z" fill="#24528F" fill-opacity="1.000000" fill-rule="nonzero"/>
</svg>
