<svg width="21.000000" height="21.000000" viewBox="0 0 21 21" fill="none" xmlns="http://www.w3.org/2000/svg" xmlns:xlink="http://www.w3.org/1999/xlink">
	<desc>
			Created with Pixso.
	</desc>
	<defs/>
	<path id="?" d="M10.68 12.32Q10.48 12.86 10.47 13.79L11.91 13.79Q11.91 12.6 12.48 11.97L13.34 11.13Q14.56 9.84 14.6 8.52Q14.6 8.48 14.6 8.43Q14.6 7.33 14.08 6.61Q13.95 6.42 13.78 6.26Q13.71 6.19 13.63 6.13Q12.83 5.46 11.48 5.46Q10.26 5.46 9.44 6.03Q9.3 6.13 9.17 6.24Q8.82 6.55 8.6 6.93Q8.27 7.52 8.27 8.28L9.71 8.28Q9.71 7.82 9.91 7.49Q10.02 7.3 10.2 7.15Q10.24 7.11 10.29 7.07Q10.76 6.73 11.48 6.73Q12.19 6.73 12.61 7.08Q12.67 7.13 12.73 7.19Q12.75 7.22 12.78 7.25Q13.16 7.71 13.16 8.48Q13.16 8.66 13.13 8.83Q13.02 9.49 12.5 10.07L11.48 11.13Q10.87 11.78 10.68 12.32ZM10.5 15.85Q10.41 16.03 10.41 16.27Q10.41 16.51 10.51 16.7Q10.56 16.78 10.62 16.85Q10.64 16.87 10.66 16.89Q10.87 17.08 11.26 17.08Q11.64 17.08 11.86 16.89Q11.88 16.87 11.9 16.85Q11.97 16.78 12.02 16.69Q12.12 16.51 12.12 16.27Q12.12 16.04 12.02 15.86Q11.97 15.76 11.9 15.68Q11.87 15.65 11.84 15.62Q11.63 15.44 11.26 15.44Q10.89 15.44 10.68 15.62Q10.65 15.65 10.62 15.68Q10.55 15.76 10.5 15.85Z" fill="#EB5757" fill-opacity="1.000000" fill-rule="evenodd"/>
	<ellipse id="Ellipse" cx="10.464661" cy="10.500000" rx="10.507991" ry="10.500000" fill="#2F80ED" fill-opacity="0"/>
	<ellipse id="Ellipse" cx="10.464661" cy="10.500000" rx="10.007991" ry="10.000000" stroke="#EB5757" stroke-opacity="1.000000" stroke-width="1.000000"/>
</svg>
