<svg width="105.000000" height="42.000000" viewBox="0 0 105 42" fill="none" xmlns="http://www.w3.org/2000/svg" xmlns:xlink="http://www.w3.org/1999/xlink">
	<desc>
			Created with Pixso.
	</desc>
	<defs>
		<linearGradient id="paint_linear_2_129_0" x1="-3.113031" y1="23.499977" x2="103.468025" y2="12.000015" gradientUnits="userSpaceOnUse">
			<stop stop-color="#2D9CDB"/>
			<stop offset="1.000000" stop-color="#255F80"/>
		</linearGradient>
	</defs>
	<path id="Vector" d="M0.38 23.85C2.07 21 2.67 19.24 3.83 22.77C4.31 24.21 4.45 26.73 5.03 27.74C6.59 30.44 6.61 35.53 8.15 30.89C9.29 27.43 10.94 32.01 12.68 31.34C15.43 30.28 16.28 32.86 18.07 35.77C19.12 37.49 21.07 41.12 22.38 40.99C24.11 40.82 24.64 34.5 26.5 33.58C27.54 33.06 28.35 35.01 29.28 34.12C29.84 33.58 29.87 31.6 30.38 31.34C31.21 30.93 30.78 32.71 31.22 32.71C32.45 32.71 32.35 31.4 33.26 33.37C34.11 35.21 35.39 34.16 36.18 32.79C37.45 30.6 39.34 29.92 40.73 27.95C41.96 26.21 44.63 23.48 46.2 22.94C47.63 22.44 48.35 25.26 49.38 25.26C50.24 25.26 52.47 23.13 53 21.98C53.83 20.2 55.02 23.36 55.81 23.06C57.03 22.59 58.26 18.49 59.14 16.97C59.97 15.52 61.84 10.51 63.14 10.51C63.52 10.51 66.12 12.81 66.47 13.25C67.67 14.75 69.35 17.31 70.68 18.46C73.01 20.47 75.36 13.79 77.32 12.75C78.6 12.07 77.97 17.01 79.74 15.48C80.44 14.88 80.82 13.72 81.66 13.45C82.84 13.08 83.03 15.94 83.86 16.35C85.74 17.28 88.02 13.07 89.28 11.13C90.05 9.95 93.27 5.18 94.41 7.03C95.41 8.67 96.53 11.18 97.64 8.19C98.86 4.91 101.59 1.61 103.46 0" stroke="url(#paint_linear_2_129_0)" stroke-opacity="1.000000" stroke-width="1.500000" stroke-linejoin="round" stroke-linecap="round"/>
</svg>
