<svg width="19.000000" height="19.000000" viewBox="0 0 19 19" fill="none" xmlns="http://www.w3.org/2000/svg" xmlns:xlink="http://www.w3.org/1999/xlink">
	<desc>
			Created with Pixso.
	</desc>
	<defs/>
	<path id="Vector" d="M8.77 0C3.52 0 -0.74 4.25 -0.74 9.5C-0.74 14.74 3.52 19 8.77 19C14.02 19 18.28 14.74 18.28 9.5C18.28 4.25 14.02 0 8.77 0ZM8.77 2.84C10.51 2.84 11.92 4.24 11.92 5.98C11.92 7.71 10.51 9.12 8.77 9.12C7.03 9.12 5.63 7.71 5.63 5.98C5.63 4.24 7.03 2.84 8.77 2.84ZM8.77 16.51C7.04 16.51 5.45 15.88 4.23 14.84C3.93 14.58 3.76 14.21 3.76 13.82C3.76 12.06 5.18 10.65 6.94 10.65L10.6 10.65C12.36 10.65 13.78 12.06 13.78 13.82C13.78 14.21 13.61 14.58 13.31 14.84C12.09 15.88 10.5 16.51 8.77 16.51Z" fill="#255390" fill-opacity="1.000000" fill-rule="nonzero"/>
</svg>
