<svg width="21.000000" height="21.000000" viewBox="0 0 21 21" fill="none" xmlns="http://www.w3.org/2000/svg" xmlns:xlink="http://www.w3.org/1999/xlink">
	<desc>
			Created with Pixso.
	</desc>
	<defs/>
	<path id="Vector" d="M20.4 9.33C20.36 9.03 20.02 8.81 19.72 8.81C18.76 8.81 17.9 8.25 17.55 7.37C17.18 6.48 17.42 5.43 18.13 4.78C18.36 4.57 18.39 4.22 18.2 3.99C17.7 3.36 17.14 2.79 16.53 2.31C16.29 2.11 15.94 2.14 15.73 2.37C15.11 3.06 13.98 3.32 13.11 2.96C12.21 2.58 11.64 1.66 11.69 0.68C11.71 0.37 11.49 0.1 11.18 0.06C10.39 -0.03 9.6 -0.03 8.81 0.06C8.51 0.09 8.28 0.35 8.29 0.66C8.33 1.63 7.75 2.53 6.85 2.9C6 3.25 4.88 2.99 4.25 2.31C4.05 2.08 3.7 2.05 3.46 2.24C2.83 2.74 2.26 3.3 1.76 3.92C1.57 4.16 1.59 4.51 1.82 4.72C2.55 5.38 2.79 6.43 2.41 7.34C2.05 8.2 1.15 8.76 0.12 8.76C-0.21 8.75 -0.45 8.97 -0.48 9.27C-0.58 10.06 -0.58 10.87 -0.49 11.66C-0.45 11.96 -0.1 12.18 0.2 12.18C1.12 12.15 2 12.72 2.36 13.62C2.73 14.51 2.5 15.55 1.78 16.21C1.55 16.42 1.52 16.76 1.71 17C2.2 17.63 2.76 18.19 3.37 18.68C3.62 18.88 3.97 18.85 4.17 18.62C4.8 17.93 5.93 17.67 6.79 18.03C7.7 18.41 8.27 19.33 8.22 20.31C8.2 20.62 8.42 20.89 8.73 20.92C9.13 20.97 9.54 21 9.94 21C10.33 21 10.71 20.97 11.1 20.93C11.4 20.9 11.63 20.64 11.62 20.33C11.58 19.36 12.16 18.46 13.05 18.09C13.92 17.74 15.03 18 15.66 18.68C15.86 18.91 16.21 18.94 16.45 18.75C17.08 18.26 17.65 17.69 18.15 17.07C18.34 16.83 18.32 16.48 18.09 16.27C17.36 15.61 17.12 14.56 17.5 13.65C17.86 12.8 18.72 12.23 19.65 12.23L19.78 12.23C20.08 12.26 20.36 12.02 20.39 11.72C20.49 10.93 20.49 10.12 20.4 9.33ZM9.97 14.02C8.04 14.02 6.47 12.45 6.47 10.52C6.47 8.59 8.04 7.01 9.97 7.01C11.9 7.01 13.48 8.59 13.48 10.52C13.48 12.45 11.9 14.02 9.97 14.02Z" fill="#255390" fill-opacity="1.000000" fill-rule="evenodd"/>
</svg>
