<svg width="15.000000" height="10.000000" viewBox="0 0 15 10" fill="none" xmlns="http://www.w3.org/2000/svg" xmlns:xlink="http://www.w3.org/1999/xlink">
	<desc>
			Created with Pixso.
	</desc>
	<defs/>
	<path id="Vector" d="M9.99 3.44C9.99 3.4 10.01 3.35 10.04 3.32L11.48 1.76C11.51 1.72 11.56 1.7 11.61 1.7C11.66 1.69 11.7 1.71 11.74 1.74C12.4 2.29 12.95 2.95 13.38 3.69C13.4 3.73 13.4 3.77 13.39 3.82C13.38 3.86 13.35 3.9 13.3 3.92L11.39 4.92C11.36 4.93 11.33 4.94 11.3 4.94C11.23 4.94 11.17 4.91 11.14 4.85C10.86 4.36 10.49 3.93 10.06 3.56C10.02 3.53 10 3.49 9.99 3.44Z" fill="#828282" fill-opacity="1.000000" fill-rule="nonzero"/>
	<path id="Vector" d="M9.35 2.87C9.32 2.92 9.25 2.96 9.19 2.96C9.16 2.96 9.13 2.95 9.1 2.94C8.59 2.68 8.04 2.51 7.46 2.43C7.36 2.42 7.29 2.33 7.3 2.24L7.6 0.18C7.61 0.08 7.7 0.01 7.8 0.03C8.68 0.14 9.52 0.4 10.3 0.79C10.39 0.84 10.42 0.94 10.37 1.03L9.35 2.87Z" fill="#828282" fill-opacity="1.000000" fill-rule="nonzero"/>
	<path id="Vector" d="M11.7 5.66L13.81 5.11C13.85 5.1 13.9 5.11 13.95 5.13C13.99 5.15 14.02 5.19 14.03 5.23C14.2 5.84 14.29 6.47 14.29 7.11C14.29 7.22 14.29 7.33 14.28 7.44C14.28 7.54 14.2 7.61 14.1 7.61C14.1 7.61 14.1 7.61 14.09 7.61L11.91 7.51C11.86 7.51 11.82 7.49 11.78 7.46C11.75 7.42 11.73 7.38 11.74 7.33C11.74 7.25 11.74 7.18 11.74 7.11C11.74 6.69 11.68 6.27 11.57 5.87C11.54 5.78 11.6 5.68 11.7 5.66Z" fill="#828282" fill-opacity="1.000000" fill-rule="nonzero"/>
	<path id="Vector" d="M3.53 0.67C4.33 0.3 5.17 0.08 6.06 0C6.1 -0.01 6.15 0.01 6.19 0.03C6.23 0.06 6.25 0.11 6.25 0.15L6.46 2.22C6.47 2.32 6.4 2.4 6.3 2.41C5.72 2.47 5.16 2.62 4.64 2.86C4.61 2.87 4.59 2.87 4.56 2.87C4.54 2.87 4.52 2.87 4.5 2.86C4.45 2.85 4.42 2.82 4.39 2.77L3.45 0.9C3.4 0.81 3.44 0.71 3.53 0.67Z" fill="#828282" fill-opacity="1.000000" fill-rule="nonzero"/>
	<path id="Vector" d="M0.32 3.58C0.31 3.53 0.32 3.49 0.34 3.45C0.79 2.73 1.37 2.09 2.05 1.56C2.09 1.53 2.14 1.52 2.19 1.52C2.23 1.53 2.28 1.55 2.31 1.59L3.69 3.2C3.72 3.24 3.73 3.28 3.73 3.33C3.72 3.38 3.7 3.42 3.66 3.45C3.21 3.8 2.83 4.22 2.53 4.69C2.49 4.75 2.43 4.78 2.37 4.78C2.34 4.78 2.31 4.77 2.28 4.75L0.4 3.68C0.36 3.66 0.33 3.62 0.32 3.58Z" fill="#828282" fill-opacity="1.000000" fill-rule="nonzero"/>
	<path id="Vector" d="M-0.38 4.97C-0.35 4.88 -0.24 4.83 -0.15 4.86L1.94 5.48C2.03 5.51 2.09 5.6 2.06 5.7C1.91 6.15 1.83 6.63 1.83 7.11C1.83 7.18 1.83 7.25 1.84 7.33C1.84 7.38 1.82 7.42 1.79 7.46C1.76 7.49 1.71 7.51 1.66 7.51L-0.52 7.61C-0.52 7.61 -0.53 7.61 -0.53 7.61C-0.63 7.61 -0.71 7.54 -0.71 7.44C-0.72 7.33 -0.72 7.22 -0.72 7.11C-0.72 6.38 -0.6 5.66 -0.38 4.97Z" fill="#828282" fill-opacity="1.000000" fill-rule="nonzero"/>
	<path id="Vector" d="M6.79 6.74C6.82 6.74 6.86 6.74 6.89 6.74L9.85 5.08C9.92 5.04 10.01 5.05 10.07 5.11C10.13 5.16 10.15 5.25 10.11 5.32L8.49 8.2C8.5 8.26 8.5 8.31 8.5 8.37C8.5 8.8 8.32 9.21 8 9.52C7.68 9.83 7.25 10 6.79 10C6.34 10 5.91 9.83 5.58 9.52C5.26 9.21 5.08 8.8 5.08 8.37C5.08 7.93 5.26 7.52 5.58 7.22C5.91 6.91 6.34 6.74 6.79 6.74Z" fill="#828282" fill-opacity="1.000000" fill-rule="nonzero"/>
</svg>
