<svg width="15.000000" height="11.000000" viewBox="0 0 15 11" fill="none" xmlns="http://www.w3.org/2000/svg" xmlns:xlink="http://www.w3.org/1999/xlink">
	<desc>
			Created with Pixso.
	</desc>
	<defs/>
	<path id="Vector" d="M9.75 3.44C9.75 3.4 9.77 3.35 9.8 3.32L11.24 1.76C11.27 1.72 11.32 1.7 11.37 1.7C11.42 1.69 11.46 1.71 11.5 1.74C12.16 2.29 12.71 2.95 13.14 3.69C13.16 3.73 13.16 3.77 13.15 3.82C13.14 3.86 13.11 3.9 13.06 3.92L11.14 4.92C11.12 4.93 11.09 4.94 11.06 4.94C10.99 4.94 10.93 4.91 10.9 4.85C10.62 4.36 10.25 3.93 9.82 3.56C9.78 3.53 9.76 3.49 9.75 3.44Z" fill="#2F80ED" fill-opacity="1.000000" fill-rule="nonzero"/>
	<path id="Vector" d="M9.11 2.87C9.08 2.92 9.01 2.96 8.95 2.96C8.92 2.96 8.89 2.95 8.86 2.94C8.35 2.68 7.8 2.51 7.22 2.43C7.12 2.42 7.05 2.33 7.06 2.24L7.36 0.18C7.37 0.08 7.46 0.01 7.56 0.03C8.44 0.14 9.28 0.4 10.06 0.79C10.15 0.84 10.18 0.94 10.13 1.03L9.11 2.87Z" fill="#2F80ED" fill-opacity="1.000000" fill-rule="nonzero"/>
	<path id="Vector" d="M11.46 5.66L13.57 5.11C13.61 5.1 13.66 5.11 13.7 5.13C13.75 5.15 13.78 5.19 13.79 5.23C13.96 5.84 14.05 6.47 14.05 7.11C14.05 7.22 14.05 7.33 14.04 7.44C14.04 7.54 13.96 7.61 13.86 7.61C13.86 7.61 13.86 7.61 13.85 7.61L11.67 7.51C11.62 7.51 11.58 7.49 11.54 7.46C11.51 7.42 11.49 7.38 11.5 7.33C11.5 7.25 11.5 7.18 11.5 7.11C11.5 6.69 11.44 6.27 11.33 5.87C11.3 5.78 11.36 5.68 11.46 5.66Z" fill="#2F80ED" fill-opacity="1.000000" fill-rule="nonzero"/>
	<path id="Vector" d="M3.29 0.67C4.09 0.3 4.93 0.08 5.81 0C5.86 -0.01 5.91 0.01 5.95 0.03C5.99 0.06 6.01 0.11 6.01 0.15L6.22 2.22C6.23 2.32 6.16 2.4 6.06 2.41C5.48 2.47 4.92 2.62 4.4 2.86C4.37 2.87 4.35 2.87 4.32 2.87C4.3 2.87 4.28 2.87 4.26 2.86C4.21 2.85 4.18 2.82 4.15 2.77L3.21 0.9C3.16 0.81 3.2 0.71 3.29 0.67Z" fill="#2F80ED" fill-opacity="1.000000" fill-rule="nonzero"/>
	<path id="Vector" d="M0.08 3.58C0.07 3.53 0.07 3.49 0.1 3.45C0.55 2.73 1.13 2.09 1.81 1.56C1.85 1.53 1.9 1.52 1.95 1.52C1.99 1.53 2.04 1.55 2.07 1.59L3.45 3.2C3.48 3.24 3.49 3.28 3.49 3.33C3.48 3.38 3.46 3.42 3.42 3.45C2.97 3.8 2.59 4.22 2.29 4.69C2.25 4.75 2.19 4.78 2.13 4.78C2.1 4.78 2.07 4.77 2.04 4.75L0.16 3.68C0.12 3.66 0.09 3.62 0.08 3.58Z" fill="#2F80ED" fill-opacity="1.000000" fill-rule="nonzero"/>
	<path id="Vector" d="M-0.62 4.97C-0.59 4.88 -0.49 4.83 -0.39 4.86L1.7 5.48C1.79 5.51 1.85 5.6 1.82 5.7C1.67 6.15 1.59 6.63 1.59 7.11C1.59 7.18 1.59 7.25 1.6 7.33C1.6 7.38 1.58 7.42 1.55 7.46C1.52 7.49 1.47 7.51 1.42 7.51L-0.76 7.61C-0.76 7.61 -0.77 7.61 -0.77 7.61C-0.87 7.61 -0.95 7.54 -0.95 7.44C-0.96 7.33 -0.96 7.22 -0.96 7.11C-0.96 6.38 -0.84 5.66 -0.62 4.97Z" fill="#2F80ED" fill-opacity="1.000000" fill-rule="nonzero"/>
	<path id="Vector" d="M6.55 6.74C6.58 6.74 6.61 6.74 6.65 6.74L9.61 5.08C9.68 5.04 9.77 5.05 9.83 5.11C9.89 5.16 9.91 5.25 9.87 5.32L8.25 8.2C8.26 8.26 8.26 8.31 8.26 8.37C8.26 8.8 8.08 9.21 7.76 9.52C7.44 9.83 7.01 10 6.55 10C6.1 10 5.67 9.83 5.34 9.52C5.02 9.21 4.84 8.8 4.84 8.37C4.84 7.93 5.02 7.52 5.34 7.22C5.67 6.91 6.1 6.74 6.55 6.74Z" fill="#2F80ED" fill-opacity="1.000000" fill-rule="nonzero"/>
</svg>
