<svg width="23.000000" height="15.000000" viewBox="0 0 23 15" fill="none" xmlns="http://www.w3.org/2000/svg" xmlns:xlink="http://www.w3.org/1999/xlink">
	<desc>
			Created with Pixso.
	</desc>
	<defs/>
	<path id="Vector" d="M15.49 5.17C15.48 5.1 15.51 5.03 15.55 4.98L17.77 2.64C17.82 2.58 17.89 2.55 17.96 2.55C18.03 2.54 18.11 2.57 18.16 2.61C19.18 3.44 20.02 4.43 20.67 5.53C20.71 5.59 20.71 5.66 20.69 5.73C20.67 5.79 20.62 5.85 20.56 5.88L17.62 7.38C17.58 7.4 17.53 7.41 17.48 7.41C17.39 7.41 17.29 7.36 17.24 7.28C16.81 6.55 16.25 5.9 15.58 5.35C15.52 5.3 15.49 5.24 15.49 5.17Z" fill="#F2AE4B" fill-opacity="1.000000" fill-rule="nonzero"/>
	<path id="Vector" d="M14.5 4.3C14.45 4.39 14.35 4.44 14.25 4.44C14.21 4.44 14.16 4.43 14.12 4.41C13.33 4.02 12.48 3.77 11.6 3.65C11.45 3.63 11.34 3.5 11.36 3.36L11.81 0.27C11.83 0.12 11.97 0.02 12.13 0.04C13.47 0.21 14.76 0.6 15.95 1.19C16.09 1.26 16.14 1.42 16.07 1.54L14.5 4.3Z" fill="#F2AE4B" fill-opacity="1.000000" fill-rule="nonzero"/>
	<path id="Vector" d="M18.1 8.49L21.33 7.67C21.4 7.65 21.48 7.66 21.54 7.7C21.61 7.73 21.65 7.79 21.67 7.85C21.94 8.77 22.07 9.71 22.07 10.67C22.07 10.83 22.07 10.99 22.06 11.17C22.06 11.31 21.93 11.41 21.78 11.41C21.78 11.41 21.77 11.41 21.77 11.41L18.42 11.27C18.35 11.27 18.28 11.24 18.23 11.19C18.18 11.13 18.15 11.07 18.16 11C18.16 10.88 18.16 10.77 18.16 10.67C18.16 10.04 18.08 9.41 17.9 8.81C17.86 8.67 17.95 8.53 18.1 8.49Z" fill="#F2AE4B" fill-opacity="1.000000" fill-rule="nonzero"/>
	<path id="Vector" d="M5.57 1C6.79 0.46 8.1 0.12 9.45 0C9.52 -0.01 9.59 0.01 9.65 0.05C9.71 0.1 9.74 0.16 9.75 0.23L10.07 3.34C10.09 3.48 9.98 3.61 9.82 3.62C8.93 3.7 8.07 3.93 7.27 4.29C7.23 4.3 7.19 4.31 7.15 4.31C7.12 4.31 7.09 4.31 7.06 4.3C6.99 4.27 6.93 4.23 6.9 4.16L5.44 1.35C5.38 1.22 5.44 1.07 5.57 1Z" fill="#F2AE4B" fill-opacity="1.000000" fill-rule="nonzero"/>
	<path id="Vector" d="M0.65 5.37C0.63 5.3 0.64 5.23 0.68 5.17C1.38 4.09 2.26 3.14 3.31 2.35C3.37 2.3 3.44 2.28 3.51 2.29C3.59 2.3 3.66 2.33 3.7 2.38L5.82 4.81C5.86 4.86 5.89 4.93 5.88 5C5.87 5.07 5.83 5.13 5.78 5.17C5.08 5.7 4.5 6.33 4.04 7.04C3.99 7.12 3.89 7.17 3.8 7.17C3.75 7.17 3.7 7.16 3.66 7.13L0.78 5.53C0.71 5.49 0.67 5.44 0.65 5.37Z" fill="#F2AE4B" fill-opacity="1.000000" fill-rule="nonzero"/>
	<path id="Vector" d="M-0.42 7.46C-0.37 7.32 -0.21 7.24 -0.07 7.29L3.13 8.22C3.28 8.26 3.36 8.41 3.31 8.55C3.08 9.23 2.97 9.94 2.97 10.67C2.97 10.77 2.97 10.88 2.98 11C2.98 11.07 2.95 11.13 2.9 11.19C2.85 11.24 2.78 11.27 2.71 11.27L-0.64 11.41C-0.64 11.41 -0.65 11.41 -0.65 11.41C-0.8 11.41 -0.92 11.31 -0.93 11.17C-0.94 10.99 -0.94 10.83 -0.94 10.67C-0.94 9.57 -0.77 8.49 -0.42 7.46Z" fill="#F2AE4B" fill-opacity="1.000000" fill-rule="nonzero"/>
	<path id="Vector" d="M10.58 10.11C10.62 10.11 10.67 10.12 10.72 10.12L15.26 7.62C15.37 7.56 15.51 7.58 15.6 7.66C15.7 7.74 15.72 7.87 15.66 7.98L13.18 12.3C13.19 12.39 13.2 12.47 13.2 12.55C13.2 13.21 12.92 13.82 12.43 14.28C11.93 14.74 11.28 14.99 10.58 14.99C9.88 14.99 9.22 14.74 8.72 14.28C8.23 13.82 7.96 13.21 7.96 12.55C7.96 11.9 8.23 11.29 8.72 10.83C9.22 10.37 9.88 10.11 10.58 10.11Z" fill="#F2AE4B" fill-opacity="1.000000" fill-rule="nonzero"/>
</svg>
