<svg width="118" height="42" viewBox="0 0 118 42" fill="none" xmlns="http://www.w3.org/2000/svg">
<path d="M103.61 0.146342C96.1463 0.146342 90 6.29268 90 13.7561C90 21.2195 96.1463 27.3659 103.61 27.3659C111.073 27.3659 117.22 21.2195 117.22 13.7561C117.22 6.29268 111.073 0.146342 103.61 0.146342ZM103.61 22.2439C98.9268 22.2439 95.1219 18.439 95.1219 13.7561C95.1219 9.07317 98.9268 5.26829 103.61 5.26829C108.293 5.26829 112.098 9.07317 112.098 13.7561C112.098 18.439 108.293 22.2439 103.61 22.2439ZM103.61 9.65854C101.415 9.65854 99.5122 11.4146 99.5122 13.7561C99.5122 15.9512 101.415 17.8537 103.61 17.8537C105.805 17.8537 107.707 16.0976 107.707 13.7561C107.707 11.561 105.805 9.65854 103.61 9.65854ZM53.561 27.3659C53.8537 27.3659 54.1463 27.3659 54.439 27.2195C55.9024 26.7805 56.6341 25.3171 56.1951 23.8537C56.1951 23.7073 50.6341 6.58537 50.4878 5.85366V5.70732C49.1707 2.34146 45.9512 0 42.2927 0C38.6341 0 35.2683 2.34146 34.0976 5.70732C33.8049 6.43903 28.5366 22.9756 28.2439 23.561C27.8049 25.0244 28.5366 26.4878 30 26.9268C31.4634 27.3659 32.9268 26.6341 33.3659 25.1707C35.2683 19.3171 38.9268 8.19512 39.2195 7.31707C39.6585 6 40.9756 5.12195 42.439 5.12195C43.9024 5.12195 45.0732 6 45.6585 7.31707C45.9512 8.34146 49.6098 19.7561 51.3658 25.1707C51.3658 26.6341 52.3902 27.3659 53.561 27.3659ZM85.0244 27.3659C85.3171 27.3659 85.6097 27.3659 85.9024 27.2195C87.3658 26.7805 88.0975 25.3171 87.6585 23.8537C87.6585 23.7073 82.0976 6.58537 81.9512 5.85366V5.70732C80.6341 2.34146 77.4146 0 73.7561 0C70.0976 0 66.7317 2.34146 65.561 5.70732C65.2683 6.43903 60 22.9756 59.7073 23.7073C59.2683 25.1707 60 26.6341 61.4634 27.0732C62.9268 27.5122 64.3902 26.7805 64.8293 25.3171C66.7317 19.4634 70.3902 8.34146 70.6829 7.46342C71.1219 6.14634 72.439 5.26829 73.9024 5.26829C75.3659 5.26829 76.5366 6.14634 77.1219 7.46342C77.4146 8.48781 81.0732 19.9024 82.8293 25.3171C82.8293 26.6341 84 27.3659 85.0244 27.3659ZM23.122 4.39024C21.3659 1.17073 17.7073 -0.292683 14.0488 0.292683C13.1707 0.439025 4.82927 1.60976 3.07317 1.90244C1.60976 2.04878 0.585366 3.5122 0.878049 4.97561C1.17073 6.43903 2.4878 7.46342 3.95122 7.17073C8.4878 6.29268 14.0488 5.70732 14.7805 5.56098C16.2439 5.41464 17.561 5.70732 18.2927 6.87805C18.5854 7.31707 18.7317 7.90244 18.7317 8.48781V9.65854C16.9756 9.95122 14.6341 10.3902 12.5854 10.6829L8.92683 11.2683C4.39024 12 0.146341 13.6098 0 20.0488C0 24.7317 3.80488 27.2195 7.60976 27.2195C8.4878 27.2195 8.92683 27.2195 9.07317 27.2195H9.21951H19.0244H19.1707C21.6585 27.2195 23.8537 25.0244 23.8537 22.5366V11.8537C23.8537 11.8537 23.8537 11.8537 23.8537 11.7073V8.34146C24.1463 7.17073 23.8537 5.70732 23.122 4.39024ZM18.7317 21.6585C18.7317 21.8049 18.5854 22.0976 18.2927 22.0976H7.90244C6.58537 22.0976 5.41463 21.0732 5.41463 19.6098C5.41463 18.439 6.29268 17.122 7.46341 16.9756L18.5854 15.2195C18.7317 15.2195 18.7317 21.6585 18.7317 21.6585ZM3.95122 33.9512H1.31707V33.3659H7.31707V34.0976H4.82927V40.2439H3.95122V33.9512ZM14.7805 40.0976V34.5366L9.95122 40.0976H9.21951V33.3659H10.0976V38.7805L14.7805 33.3659H15.6585V40.0976H14.7805ZM24 40.0976H18V33.3659H18.878V39.5122H23.2683V33.3659H24.1463V39.5122H24.878V41.7073H24C24 41.561 24 40.0976 24 40.0976ZM32.3415 40.0976H31.4634V37.4634H29.4146L27.0732 40.0976H26.0488L28.3902 37.3171C27.2195 37.1707 26.3415 36.439 26.3415 35.2683C26.3415 33.9512 27.5122 33.2195 29.2683 33.2195H32.3415V40.0976ZM29.1219 33.9512C27.9512 33.9512 27.2195 34.5366 27.2195 35.2683C27.2195 36.1463 28.0976 36.7317 29.2683 36.7317H31.4634V33.9512H29.1219ZM40.3902 40.0976V34.5366L35.561 40.0976H34.8293V33.3659H35.7073V38.7805L40.5366 33.3659H41.4146V40.0976H40.3902ZM36.2927 31.6098H36.878C37.0244 31.9024 37.3171 32.0488 37.9024 32.0488C38.4878 32.0488 38.7805 31.9024 38.9268 31.6098H39.5122C39.3659 32.3415 38.7805 32.7805 37.9024 32.7805C37.0244 32.7805 36.439 32.3415 36.2927 31.6098ZM47.7073 33.3659H48.5854V39.5122H52.2439V33.3659H53.1219V39.5122H56.7805V33.3659H57.6585V39.5122H58.3902V41.7073H57.5122V40.2439H47.7073V33.3659ZM59.7073 36.7317C59.7073 34.8293 61.3171 33.2195 63.6585 33.2195C66 33.2195 67.6097 34.8293 67.6097 36.7317C67.6097 38.6341 66 40.2439 63.6585 40.2439C61.3171 40.2439 59.7073 38.6341 59.7073 36.7317ZM66.5854 36.7317C66.5854 35.122 65.2683 33.9512 63.5122 33.9512C61.7561 33.9512 60.5854 35.2683 60.5854 36.7317C60.5854 38.3415 61.9024 39.5122 63.6585 39.5122C65.2683 39.5122 66.5854 38.1951 66.5854 36.7317ZM79.6097 33.3659L76.8293 36.7317L79.7561 40.2439H78.7317L76.2439 37.3171L73.7561 40.2439H72.7317L75.6585 36.7317L73.0244 33.3659H74.0488L76.3902 36.1463L78.7317 33.3659H79.6097ZM80.6341 36.7317C80.6341 34.8293 82.2439 33.2195 84.5854 33.2195C86.9268 33.2195 88.3902 34.8293 88.3902 36.7317C88.3902 38.6341 86.7805 40.2439 84.439 40.2439C82.2439 40.2439 80.6341 38.6341 80.6341 36.7317ZM87.5122 36.7317C87.5122 35.122 86.1951 33.9512 84.439 33.9512C82.6829 33.9512 81.5122 35.2683 81.5122 36.7317C81.5122 38.3415 82.8293 39.5122 84.5854 39.5122C86.3415 39.5122 87.5122 38.1951 87.5122 36.7317ZM94.9756 37.4634C94.2439 37.6098 93.5122 37.7561 92.9268 37.7561C91.1707 37.7561 90 37.1707 90 35.4146V33.3659H90.878V35.4146C90.878 36.5854 91.6097 37.1707 92.9268 37.1707C93.5122 37.1707 94.2439 37.0244 94.8293 36.8781V33.3659H95.7073V40.0976H94.8293L94.9756 37.4634ZM98.1951 33.3659H103.756V34.0976H99.0732V36.2927H103.171V37.0244H99.0732V39.3659H103.756V40.0976H98.1951V33.3659ZM105.805 33.3659H106.683V39.5122H110.341V33.3659H111.22V39.5122H114.878V33.3659H115.756V40.0976H105.951V33.3659H105.805Z" fill="#FCFEFF"/>
</svg>
