<svg width="16.000000" height="16.000000" viewBox="0 0 16 16" fill="none" xmlns="http://www.w3.org/2000/svg" xmlns:xlink="http://www.w3.org/1999/xlink">
	<desc>
			Created with Pixso.
	</desc>
	<defs/>
	<path id="Deafen" d="M8 -0.5C3.58 -0.5 0 3.08 0 7.5L0 13.9C0 14.78 0.71 15.5 1.6 15.5L3.19 15.5C4.08 15.5 4.8 14.78 4.8 13.9L4.8 11.5C4.8 10.61 4.08 9.9 3.19 9.9L1.6 9.9L1.6 7.5C1.6 3.97 4.47 1.09 8 1.09C11.52 1.09 14.39 3.97 14.39 7.5L14.39 9.9L12.8 9.9C11.91 9.9 11.2 10.61 11.2 11.5L11.2 13.9C11.2 14.78 11.91 15.5 12.8 15.5L14.39 15.5C15.28 15.5 16 14.78 16 13.9L16 7.5C16 3.08 12.41 -0.5 8 -0.5Z" fill="#C7C9CB" fill-opacity="1.000000" fill-rule="nonzero"/>
</svg>
