<svg width="20.000000" height="20.000000" viewBox="0 0 20 20" fill="none" xmlns="http://www.w3.org/2000/svg" xmlns:xlink="http://www.w3.org/1999/xlink">
	<desc>
			Created with Pixso.
	</desc>
	<defs/>
	<path id="Help &amp; Support" d="M9.99 0C4.48 0 -0.01 4.48 -0.01 10C-0.01 15.51 4.48 20 9.99 20C15.51 20 19.99 15.51 19.99 10C19.99 4.48 15.51 0 9.99 0ZM9.99 16.25C9.3 16.25 8.74 15.69 8.74 15C8.74 14.31 9.3 13.75 9.99 13.75C10.68 13.75 11.24 14.31 11.24 15C11.24 15.69 10.68 16.25 9.99 16.25ZM10.99 11.87L10.99 13L8.99 13L8.99 10L9.99 10C11.1 10 11.99 9.1 11.99 8C11.99 6.89 11.1 6 9.99 6C8.89 6 7.99 6.89 7.99 8L5.99 8C5.99 5.79 7.79 4 9.99 4C12.2 4 13.99 5.79 13.99 8C13.99 9.86 12.72 11.42 10.99 11.87Z" fill="#C7C9CB" fill-opacity="1.000000" fill-rule="nonzero"/>
</svg>
