<svg width="18.000000" height="18.000000" viewBox="0 0 18 18" fill="none" xmlns="http://www.w3.org/2000/svg" xmlns:xlink="http://www.w3.org/1999/xlink">
	<desc>
			Created with Pixso.
	</desc>
	<defs/>
	<path id="Inbox" d="M15.99 0L1.98 0C0.87 0 0 0.88 0 2L-0.01 16C-0.01 17.1 0.87 18 1.98 18L15.99 18C17.09 18 17.99 17.1 17.99 16L17.99 2C17.99 0.88 17.09 0 15.99 0ZM15.99 12L11.99 12C11.99 13.65 10.64 15 8.99 15C7.34 15 5.99 13.65 5.99 12L1.98 12L1.98 2L15.99 2L15.99 12Z" fill="#C7C9CB" fill-opacity="1.000000" fill-rule="nonzero"/>
</svg>
