<svg width="12.000000" height="17.000000" viewBox="0 0 12 17" fill="none" xmlns="http://www.w3.org/2000/svg" xmlns:xlink="http://www.w3.org/1999/xlink">
	<desc>
			Created with Pixso.
	</desc>
	<defs/>
	<path id="Mute" d="M8.56 8.05C8.56 9.53 7.42 10.73 6 10.73C4.57 10.73 3.42 9.53 3.42 8.05L3.42 2.68C3.42 1.19 4.57 0 6 0C7.42 0 8.57 1.19 8.57 2.68L8.56 8.05ZM6 12.61C8.36 12.61 10.54 10.73 10.54 8.05L12 8.05C12 11.11 9.66 13.63 6.85 14.06L6.85 17L5.14 17L5.14 14.06C2.33 13.62 0 11.1 0 8.05L1.45 8.05C1.45 10.73 3.63 12.61 6 12.61Z" fill="#C7C9CB" fill-opacity="1.000000" fill-rule="evenodd"/>
</svg>
