<svg width="24.000000" height="24.000000" viewBox="0 0 24 24" fill="none" xmlns="http://www.w3.org/2000/svg" xmlns:xlink="http://www.w3.org/1999/xlink">
	<desc>
			Created with Pixso.
	</desc>
	<defs/>
	<path id="New Group DM" d="M20.99 0L20.99 3L23.99 3L23.99 5L20.99 5L20.99 8L18.99 8L18.99 5L15.99 5L15.99 3L18.99 3L18.99 0L20.99 0ZM2.99 20L2.99 24L8.33 20L14.99 20C16.1 20 16.99 19.1 16.99 18L16.99 9C16.99 7.89 16.1 7 14.99 7L1.99 7C0.89 7 -0.01 7.89 -0.01 9L-0.01 18C-0.01 19.1 0.89 20 1.99 20L2.99 20Z" fill="#C7C9CB" fill-opacity="1.000000" fill-rule="evenodd"/>
</svg>
