<svg width="12.000000" height="12.000000" viewBox="0 0 12 12" fill="none" xmlns="http://www.w3.org/2000/svg" xmlns:xlink="http://www.w3.org/1999/xlink">
	<desc>
			Created with Pixso.
	</desc>
	<defs/>
	<path id="Plus" d="M5.81 -0.61L4.56 -0.61L4.56 4.37L-0.42 4.37L-0.42 5.62L4.56 5.62L4.56 10.62L5.81 10.62L5.81 5.62L10.8 5.62L10.8 4.37L5.81 4.37L5.81 -0.61Z" fill="#B9BBBE" fill-opacity="1.000000" fill-rule="nonzero"/>
	<path id="Plus" d="M6.19 -0.99L4.18 -0.99L4.18 3.99L-0.8 3.99L-0.8 6L4.18 6L4.18 11L6.19 11L6.19 6L11.18 6L11.18 3.99L6.19 3.99L6.19 -0.99ZM5.81 3.99L5.81 -0.61L4.56 -0.61L4.56 4.37L-0.42 4.37L-0.42 5.62L4.56 5.62L4.56 10.62L5.81 10.62L5.81 5.62L10.8 5.62L10.8 4.37L5.81 4.37L5.81 3.99Z" fill="#B9BBBE" fill-opacity="1.000000" fill-rule="evenodd"/>
</svg>
