<svg width="16.000000" height="16.000000" viewBox="0 0 16 16" fill="none" xmlns="http://www.w3.org/2000/svg" xmlns:xlink="http://www.w3.org/1999/xlink">
	<desc>
			Created with Pixso.
	</desc>
	<defs/>
	<path id="Settings" d="M14.19 5.9L16 5.9L16 9.09L14.19 9.09C13.99 9.84 13.67 10.53 13.25 11.15L14.39 12.3L12.8 13.9L11.65 12.75C11.03 13.17 10.34 13.49 9.6 13.69L9.6 15.5L6.39 15.5L6.39 13.69C5.65 13.49 4.96 13.17 4.34 12.75L3.19 13.9L1.6 12.3L2.74 11.15C2.32 10.53 2 9.84 1.8 9.09L0 9.09L0 5.9L1.8 5.9C2 5.15 2.32 4.46 2.74 3.84L1.6 2.69L3.19 1.09L4.34 2.24C4.96 1.81 5.65 1.5 6.39 1.3L6.39 -0.5L9.6 -0.5L9.6 1.3C10.34 1.5 11.03 1.81 11.65 2.24L12.8 1.09L14.39 2.69L13.25 3.84C13.67 4.46 13.99 5.15 14.19 5.9ZM8 10.7C9.76 10.7 11.2 9.26 11.2 7.5C11.2 5.73 9.76 4.3 8 4.3C6.23 4.3 4.8 5.73 4.8 7.5C4.8 9.26 6.23 10.7 8 10.7Z" fill="#C7C9CB" fill-opacity="1.000000" fill-rule="evenodd"/>
</svg>
