<svg width="48.000000" height="48.000000" viewBox="0 0 48 48" fill="none" xmlns="http://www.w3.org/2000/svg" xmlns:xlink="http://www.w3.org/1999/xlink">
	<desc>
			Created with Pixso.
	</desc>
	<defs>
		<clipPath id="clip604_23821">
			<rect id="Discovery" rx="24.000000" width="48.000000" height="48.000000" fill="white" fill-opacity="0"/>
		</clipPath>
	</defs>
	<rect id="Discovery" rx="24.000000" width="48.000000" height="48.000000" fill="#FFFFFF" fill-opacity="0"/>
	<rect id="Discovery" rx="24.000000" width="48.000000" height="48.000000" fill="#36393F" fill-opacity="1.000000"/>
	<g clip-path="url(#clip604_23821)">
		<path id="Discovery" d="M24 22.9C23.38 22.9 22.89 23.39 22.89 24C22.89 24.61 23.38 25.1 24 25.1C24.61 25.1 25.1 24.61 25.1 24C25.1 23.39 24.61 22.9 24 22.9ZM24 14C18.48 14 14 18.48 14 24C14 29.52 18.48 34 24 34C29.52 34 34 29.52 34 24C34 18.48 29.52 14 24 14ZM26.18 26.18L18 30L21.81 21.81L30 18L26.18 26.18Z" fill="#3BA55D" fill-opacity="1.000000" fill-rule="evenodd"/>
	</g>
</svg>
