<svg width="48.000000" height="48.000000" viewBox="0 0 48 48" fill="none" xmlns="http://www.w3.org/2000/svg" xmlns:xlink="http://www.w3.org/1999/xlink">
	<desc>
			Created with Pixso.
	</desc>
	<defs/>
	<rect id="Button" rx="13.000000" width="48.000000" height="48.000000" fill="#5865F2" fill-opacity="1.000000"/>
	<rect id="Icon" width="26.000000" height="26.000000" transform="translate(11.000000 10.000000)" fill="#FFFFFF" fill-opacity="0"/>
	<path id="Vector" d="M32.99 15.56C31.3 14.77 29.49 14.2 27.6 13.87C27.36 14.29 27.09 14.85 26.91 15.3C24.89 15 22.9 15 20.92 15.3C20.74 14.85 20.46 14.29 20.22 13.87C18.33 14.2 16.52 14.77 14.82 15.57C11.41 20.73 10.48 25.76 10.94 30.73C13.21 32.42 15.4 33.45 17.56 34.12C18.1 33.39 18.57 32.61 18.98 31.78C18.2 31.49 17.45 31.12 16.75 30.7C16.94 30.56 17.12 30.41 17.3 30.26C21.6 32.28 26.28 32.28 30.53 30.26C30.71 30.41 30.89 30.56 31.08 30.7C30.37 31.12 29.62 31.49 28.84 31.79C29.25 32.61 29.72 33.39 30.26 34.12C32.42 33.45 34.62 32.42 36.88 30.73C37.43 24.97 35.96 19.99 32.99 15.56ZM19.57 27.68C18.28 27.68 17.22 26.47 17.22 25C17.22 23.53 18.25 22.32 19.57 22.32C20.88 22.32 21.94 23.53 21.92 25C21.92 26.47 20.88 27.68 19.57 27.68ZM28.26 27.68C26.97 27.68 25.91 26.47 25.91 25C25.91 23.53 26.94 22.32 28.26 22.32C29.57 22.32 30.63 23.53 30.61 25C30.61 26.47 29.57 27.68 28.26 27.68Z" fill="#FFFFFF" fill-opacity="1.000000" fill-rule="nonzero"/>
</svg>
