<svg width="49.000000" height="8.000000" viewBox="0 0 49 8" fill="none" xmlns="http://www.w3.org/2000/svg" xmlns:xlink="http://www.w3.org/1999/xlink">
	<desc>
			Created with Pixso.
	</desc>
	<defs/>
	<path id="Vector" d="M10.45 2.27C11.13 2.27 11.69 1.76 11.69 1.13C11.69 0.5 11.13 0 10.45 0C9.76 0 9.21 0.5 9.21 1.13C9.21 1.76 9.76 2.27 10.45 2.27ZM49 7.69L49 0.22L46.51 0.22L46.51 2.93C46.1 1.88 45.31 1.36 44.12 1.36C43.55 1.36 43.03 1.5 42.58 1.78C42.13 2.06 41.78 2.46 41.54 2.96C41.3 3.45 41.18 4.01 41.18 4.62C41.18 4.64 41.18 4.66 41.18 4.67C41.18 5.29 41.29 5.84 41.52 6.33C41.74 6.82 42.07 7.2 42.49 7.48C42.91 7.76 43.4 7.9 43.96 7.9C44.59 7.9 45.12 7.77 45.55 7.5C45.98 7.23 46.3 6.84 46.51 6.33L46.51 7.69L49 7.69ZM3.95 0.43L0 0.43L0 7.69L3.67 7.69C4.71 7.69 5.58 7.53 6.28 7.2C6.98 6.88 7.5 6.44 7.84 5.88C8.18 5.33 8.35 4.7 8.35 4.02C8.35 3.32 8.19 2.7 7.86 2.16C7.53 1.62 7.04 1.19 6.38 0.89C5.72 0.58 4.91 0.43 3.95 0.43ZM27.34 6.27C27.65 6.78 28.1 7.17 28.68 7.46C29.27 7.75 29.96 7.9 30.76 7.9C31.56 7.9 32.25 7.75 32.84 7.46C33.42 7.17 33.87 6.77 34.17 6.27C34.48 5.76 34.63 5.2 34.63 4.58C34.63 3.95 34.48 3.39 34.17 2.91C33.87 2.42 33.42 2.05 32.84 1.77C32.26 1.49 31.57 1.35 30.76 1.35C29.96 1.35 29.26 1.49 28.68 1.77C28.1 2.05 27.65 2.43 27.34 2.91C27.04 3.4 26.88 3.96 26.88 4.58C26.88 5.2 27.04 5.77 27.34 6.27ZM12.8 7.05C13.24 7.33 13.73 7.54 14.28 7.68C14.83 7.83 15.39 7.9 15.98 7.9C16.97 7.9 17.73 7.71 18.27 7.34C18.8 6.97 19.07 6.47 19.07 5.85C19.07 5.27 18.91 4.84 18.59 4.54C18.26 4.25 17.77 4.04 17.1 3.93L16.09 3.74C15.83 3.68 15.64 3.63 15.55 3.58C15.45 3.53 15.4 3.45 15.4 3.35C15.4 3.13 15.72 3.01 16.35 3.01C16.79 3.01 17.22 3.07 17.64 3.18C18.06 3.3 18.42 3.45 18.74 3.65L18.74 2.02C18.43 1.82 18.04 1.67 17.56 1.54C17.09 1.42 16.57 1.36 16 1.36C15.36 1.36 14.81 1.44 14.33 1.6Q13.62 1.84 13.24 2.29C12.98 2.59 12.85 2.93 12.85 3.34C12.85 3.81 13 4.2 13.29 4.49C13.59 4.79 14.08 5.02 14.78 5.18L16 5.46C16.19 5.51 16.32 5.57 16.39 5.64C16.46 5.71 16.49 5.79 16.49 5.9C16.49 5.99 16.43 6.07 16.31 6.13C16.18 6.2 16 6.23 15.75 6.23C15.23 6.23 14.69 6.14 14.13 5.98C13.58 5.81 13.13 5.59 12.8 5.33L12.8 7.05ZM20.16 6.28C20.45 6.78 20.89 7.17 21.47 7.46C22.05 7.75 22.76 7.9 23.58 7.9C24.56 7.9 25.43 7.67 26.17 7.22L26.17 5.38C25.94 5.53 25.65 5.65 25.32 5.75C25 5.85 24.66 5.9 24.32 5.9C23.67 5.9 23.17 5.78 22.82 5.54C22.48 5.3 22.3 5 22.3 4.62C22.3 4.24 22.48 3.94 22.84 3.7C23.19 3.46 23.68 3.35 24.31 3.35C24.67 3.35 25.01 3.4 25.32 3.5C25.64 3.61 25.92 3.74 26.15 3.91L26.15 2.01Q25.15 1.36 23.62 1.36C22.8 1.36 22.1 1.5 21.51 1.78C20.92 2.06 20.48 2.44 20.17 2.93C19.87 3.42 19.71 3.98 19.71 4.6C19.71 5.22 19.86 5.78 20.16 6.28ZM40.73 3.98L40.73 1.74C40.47 1.57 40.16 1.49 39.81 1.49C39.33 1.49 38.95 1.66 38.64 1.99C38.34 2.33 38.12 2.85 37.99 3.55L37.99 1.62L35.55 1.62L35.55 7.69L38.04 7.69L38.04 5.78C38.04 5.08 38.18 4.56 38.48 4.22C38.77 3.89 39.18 3.72 39.73 3.72C40.14 3.72 40.47 3.81 40.73 3.98ZM5.11 5.35C4.77 5.68 4.27 5.85 3.63 5.85L2.53 5.85L2.53 2.28L3.77 2.28C4.4 2.28 4.86 2.44 5.17 2.75C5.48 3.06 5.63 3.48 5.63 4.01C5.63 4.58 5.46 5.02 5.11 5.35ZM11.69 3.05C10.91 3.4 9.97 3.39 9.21 3.05L9.21 7.72L11.69 7.72L11.69 3.05ZM32.14 4.62C32.14 5.04 32.02 5.37 31.77 5.62C31.52 5.87 31.19 6 30.76 6C30.33 6 29.99 5.87 29.74 5.62C29.49 5.37 29.37 5.04 29.37 4.62C29.37 4.21 29.49 3.88 29.74 3.63C29.99 3.39 30.33 3.26 30.76 3.26C31.19 3.26 31.52 3.39 31.77 3.63C32.02 3.88 32.14 4.21 32.14 4.62ZM46.52 4.6C46.52 5 46.39 5.33 46.14 5.58C45.88 5.83 45.55 5.96 45.13 5.96C44.71 5.96 44.38 5.84 44.13 5.59C43.88 5.34 43.76 5.02 43.76 4.62C43.76 4.23 43.88 3.91 44.13 3.66C44.38 3.42 44.72 3.3 45.14 3.3C45.56 3.3 45.9 3.42 46.15 3.66C46.39 3.9 46.52 4.22 46.52 4.6Z" fill="#72767D" fill-opacity="1.000000" fill-rule="evenodd"/>
</svg>
