<svg width="22.000000" height="15.000000" viewBox="0 0 22 15" fill="none" xmlns="http://www.w3.org/2000/svg" xmlns:xlink="http://www.w3.org/1999/xlink">
	<desc>
			Created with Pixso.
	</desc>
	<defs/>
	<path id="Vector" d="M1.99 4.54C1.99 4.95 1.63 5.29 1.2 5.29L0.78 5.29C0.35 5.29 0 4.95 0 4.54C0 4.14 0.35 3.8 0.78 3.8L1.2 3.8C1.63 3.8 1.99 4.14 1.99 4.54ZM21.25 4.34C23.1 8.08 21.39 12.56 17.34 14.32C13.43 16.02 8.74 14.39 6.96 10.66C6.61 9.91 6.39 9.09 6.32 8.28L4.76 8.28C4.33 8.28 3.98 7.94 3.98 7.53C3.98 7.13 4.33 6.79 4.76 6.79L7.03 6.79C7.46 6.79 7.82 6.45 7.82 6.04C7.82 5.63 7.46 5.29 7.03 5.29L3.41 5.29C2.98 5.29 2.63 4.95 2.63 4.54C2.63 4.14 2.98 3.8 3.41 3.8L8.45 3.8C8.88 3.8 9.24 3.46 9.24 3.05C9.24 2.64 8.88 2.3 8.45 2.3L6.39 2.3C5.75 2.3 5.18 1.83 5.18 1.15C5.18 0.54 5.68 0 6.39 0L14.43 0C17.27 0.13 19.97 1.69 21.25 4.34ZM12.27 3.59C10.02 4.58 9.03 7.12 10.07 9.27C11.1 11.41 13.76 12.35 16 11.37C18.25 10.38 19.24 7.84 18.21 5.69C17.17 3.55 14.51 2.61 12.27 3.59ZM15.85 5.02L17.27 7.33C17.34 7.46 17.34 7.53 17.27 7.67L15.85 9.98C15.78 10.11 15.64 10.11 15.56 10.11L12.79 10.11C12.65 10.11 12.58 10.05 12.51 9.98L11.09 7.67C11.01 7.53 11.01 7.46 11.09 7.33L12.51 5.02C12.58 4.88 12.72 4.88 12.79 4.88L15.56 4.88C15.71 4.82 15.78 4.88 15.85 5.02Z" fill="#8E9297" fill-opacity="1.000000" fill-rule="nonzero"/>
</svg>
